<?xml version="1.0" standalone="no"?>
<!DOCTYPE svg PUBLIC "-//W3C//DTD SVG 20010904//EN"
 "http://www.w3.org/TR/2001/REC-SVG-20010904/DTD/svg10.dtd">
<svg version="1.0" xmlns="http://www.w3.org/2000/svg"
 width="867.000000pt" height="1280.000000pt" viewBox="0 0 867.000000 1280.000000"
 preserveAspectRatio="xMidYMid meet">
<g transform="translate(0.000000,1280.000000) scale(0.100000,-0.100000)"
fill="#000000" stroke="none">
<path d="M4139 12796 c-2 -2 -74 -9 -159 -16 -85 -7 -206 -21 -268 -31 -63
-10 -126 -19 -140 -19 -15 0 -35 -7 -45 -15 -10 -7 -51 -19 -90 -25 -187 -31
-240 -42 -347 -77 -154 -49 -675 -315 -952 -484 -48 -30 -127 -78 -175 -107
-49 -29 -140 -98 -203 -153 -77 -67 -144 -114 -203 -145 -107 -55 -153 -102
-255 -254 -44 -67 -109 -147 -153 -191 -56 -54 -86 -94 -107 -140 -18 -38 -67
-108 -122 -173 -50 -59 -118 -148 -150 -197 -32 -49 -75 -110 -94 -135 -20
-26 -36 -51 -36 -56 0 -5 -58 -134 -129 -286 -70 -152 -138 -303 -150 -335
-11 -31 -32 -79 -45 -105 -13 -26 -35 -87 -49 -137 -34 -118 -194 -746 -218
-855 -61 -278 -65 -691 -9 -975 5 -27 14 -110 20 -184 14 -183 60 -405 124
-596 33 -97 61 -201 70 -265 9 -58 24 -129 32 -159 27 -94 138 -332 219 -466
42 -71 107 -186 143 -253 35 -68 84 -149 109 -180 24 -32 60 -82 79 -112 49
-74 78 -105 149 -153 33 -22 137 -113 230 -202 228 -215 293 -271 475 -408 85
-64 218 -165 295 -223 163 -124 203 -151 256 -169 22 -8 54 -26 72 -39 46 -36
167 -90 304 -137 63 -22 141 -53 173 -69 41 -21 89 -34 171 -46 194 -28 211
-28 238 -7 l24 19 -12 325 c-6 178 -11 473 -12 656 0 312 -1 333 -19 356 -23
29 -151 97 -230 122 -90 29 -172 65 -219 98 -51 35 -473 454 -531 528 -21 27
-52 60 -68 74 -16 13 -39 48 -52 77 -12 28 -49 81 -81 117 -74 82 -108 137
-205 326 -42 83 -86 164 -99 180 -31 42 -61 104 -70 145 -4 19 -32 89 -61 155
-73 165 -104 276 -104 374 0 63 -5 90 -25 134 -14 31 -30 80 -35 109 -4 29
-11 60 -15 69 -4 11 1 22 13 30 15 11 20 32 25 107 4 51 12 113 18 138 14 54
7 217 -11 256 -11 23 -9 32 13 70 13 24 30 70 37 103 57 287 163 639 248 826
16 36 33 79 36 96 4 16 25 61 47 99 23 38 49 90 59 116 21 55 90 170 140 232
84 105 213 247 262 288 111 93 327 245 427 301 57 31 116 68 132 81 16 14 43
27 61 31 42 9 137 57 208 105 109 73 192 111 284 132 50 11 107 23 126 28 53
11 63 18 85 51 32 47 75 68 166 80 46 5 123 23 172 40 49 16 108 29 130 29 22
0 78 7 124 16 74 14 89 14 136 0 28 -8 111 -22 184 -30 72 -9 164 -23 205 -31
89 -19 327 -93 463 -145 55 -21 113 -41 130 -45 16 -4 111 -46 210 -95 99 -48
215 -104 257 -123 81 -38 227 -139 338 -236 36 -32 91 -76 122 -99 165 -121
354 -415 456 -712 22 -63 60 -164 85 -225 25 -60 50 -130 57 -155 6 -25 19
-65 30 -90 10 -25 30 -92 45 -150 14 -58 46 -174 71 -258 58 -198 76 -281 119
-556 40 -260 44 -381 20 -621 -21 -206 -30 -253 -91 -460 -116 -396 -185 -549
-375 -830 -78 -116 -116 -157 -336 -376 -136 -135 -264 -258 -284 -272 -20
-15 -64 -39 -99 -53 -71 -29 -280 -166 -325 -214 l-30 -31 -7 -565 c-4 -357
-11 -577 -18 -598 -6 -18 -26 -48 -45 -66 -20 -19 -35 -44 -35 -56 0 -28 87
-134 143 -175 37 -27 48 -30 97 -26 30 2 124 20 209 41 155 37 155 37 346 146
106 60 217 121 247 134 30 13 84 47 120 74 36 27 97 61 136 76 39 15 86 39
106 54 19 15 61 47 93 71 32 25 60 49 62 54 8 22 77 89 104 104 39 20 210 184
257 248 21 28 87 106 149 173 61 68 111 127 111 132 0 4 32 43 71 86 76 85
189 249 207 301 6 18 28 58 49 90 22 32 66 105 98 163 32 58 76 132 99 165 22
32 54 98 71 145 18 47 60 140 93 207 34 67 66 143 73 170 6 26 31 89 54 138
24 50 51 124 60 165 9 41 24 102 34 135 10 33 22 89 26 125 3 36 15 114 26
174 14 73 22 167 24 285 2 97 10 257 17 356 15 215 15 354 0 415 -6 25 -16 97
-22 160 -11 120 -35 244 -76 391 -13 47 -26 112 -30 145 -3 32 -20 113 -37
179 -16 66 -34 149 -38 185 -16 128 -29 188 -48 221 -10 19 -22 48 -25 65 -4
17 -29 57 -56 90 -36 42 -56 79 -71 127 -31 98 -75 174 -112 194 -43 21 -48
31 -41 76 3 22 1 52 -7 70 -17 45 -202 377 -258 464 -64 100 -214 304 -241
328 -13 11 -41 45 -63 75 -45 61 -86 105 -368 393 -216 221 -302 295 -413 356
-41 23 -99 60 -128 82 -29 22 -96 61 -148 86 -52 25 -140 74 -195 108 -239
149 -407 243 -452 254 -26 7 -86 30 -133 51 -64 29 -126 46 -250 70 -91 17
-221 42 -290 55 -69 14 -167 31 -218 40 -51 9 -105 20 -120 26 -72 28 -195 39
-428 39 -132 0 -243 -2 -245 -4z"/>
<path d="M4320 11076 c-64 -13 -131 -28 -149 -34 -48 -17 -97 -57 -129 -105
-26 -39 -27 -46 -27 -171 1 -140 10 -228 49 -456 14 -80 35 -215 46 -300 27
-200 34 -232 70 -310 28 -64 50 -161 50 -230 0 -35 22 -101 65 -195 13 -27 26
-75 30 -105 7 -62 69 -188 118 -244 27 -30 45 -39 117 -57 228 -56 356 -62
558 -25 140 26 210 55 217 91 24 125 24 139 3 220 -11 44 -22 109 -24 145 -2
36 -9 140 -15 233 -10 163 -10 168 11 202 19 31 21 45 17 142 -6 130 -22 322
-42 498 -8 72 -17 195 -21 275 -3 80 -10 159 -16 177 -7 24 -34 51 -106 105
-53 40 -101 76 -107 80 -32 20 -226 61 -345 74 -178 18 -233 16 -370 -10z"/>
<path d="M3532 10925 c-35 -8 -77 -23 -95 -33 -18 -11 -57 -27 -87 -37 -85
-27 -218 -100 -289 -158 -73 -59 -112 -122 -137 -217 -16 -61 -16 -73 0 -190
9 -69 23 -210 31 -315 10 -130 25 -242 49 -355 18 -91 41 -223 50 -295 9 -71
21 -147 27 -168 5 -20 21 -99 34 -175 20 -114 31 -151 67 -222 24 -46 64 -107
90 -134 l47 -49 118 6 c214 10 425 73 678 201 49 26 94 46 101 46 6 0 23 11
38 25 21 20 26 33 26 74 0 83 -27 200 -60 258 -21 37 -36 84 -46 142 -8 47
-21 106 -29 131 -14 46 -45 239 -45 282 0 13 -9 42 -20 63 -27 53 -46 129 -60
248 -6 53 -16 112 -21 130 -6 17 -16 77 -24 132 -8 55 -21 132 -29 170 -8 39
-18 124 -21 190 -8 134 -24 175 -90 234 -35 31 -37 31 -138 30 -56 0 -130 -7
-165 -14z"/>
<path d="M5616 10716 c-33 -7 -64 -20 -71 -29 -7 -10 -15 -45 -18 -79 -4 -35
-17 -105 -29 -155 -21 -89 -21 -94 -5 -128 22 -45 22 -123 0 -220 -14 -64 -14
-81 -3 -115 11 -34 11 -49 -3 -106 -10 -37 -29 -87 -45 -112 -15 -24 -34 -54
-42 -67 -13 -21 -12 -28 13 -73 29 -53 51 -140 62 -242 4 -36 13 -80 21 -99
10 -23 14 -76 14 -167 0 -129 6 -167 32 -201 49 -61 80 -80 209 -128 74 -28
154 -56 179 -62 73 -20 173 -16 264 12 44 13 101 29 126 36 55 14 113 71 146
144 26 57 33 114 59 480 9 121 21 240 27 263 15 61 3 217 -22 294 -34 102
-230 412 -268 424 -61 20 -99 45 -159 108 -68 72 -133 116 -280 190 -86 43
-129 49 -207 32z"/>
<path d="M2440 10164 c-73 -25 -98 -36 -230 -105 -72 -38 -234 -191 -287 -272
-43 -65 -49 -124 -34 -337 12 -174 27 -275 56 -380 8 -30 15 -79 15 -110 0
-30 9 -93 21 -140 11 -47 29 -133 40 -192 10 -59 24 -119 30 -135 6 -15 17
-71 24 -124 10 -81 18 -107 50 -160 80 -134 131 -203 177 -240 55 -43 97 -54
170 -46 42 5 58 14 98 51 46 43 98 66 152 66 51 0 282 221 320 307 28 63 36
181 27 379 -7 156 -10 177 -42 274 -35 104 -55 209 -78 405 -6 55 -20 141 -30
190 -10 50 -23 149 -28 220 -6 72 -15 147 -21 167 -23 80 -214 208 -309 208
-25 0 -80 -12 -121 -26z"/>
<path d="M4520 8792 c-8 -5 -49 -12 -90 -15 -100 -7 -217 -43 -375 -114 -147
-66 -212 -119 -260 -214 -38 -73 -68 -195 -55 -219 6 -10 10 -32 10 -48 0 -33
39 -161 63 -209 26 -50 122 -148 180 -183 28 -18 72 -46 97 -63 28 -19 89 -42
170 -63 69 -19 172 -48 230 -65 58 -17 124 -34 147 -38 47 -9 93 -35 93 -54
-1 -34 -42 -57 -102 -57 -61 0 -254 53 -324 88 -62 31 -113 47 -244 77 -41 9
-127 36 -190 60 -118 44 -305 86 -465 105 -108 13 -138 21 -275 68 -101 35
-110 37 -245 37 -222 0 -293 -33 -362 -169 -89 -175 -64 -502 63 -823 24 -62
44 -116 44 -122 0 -19 90 -130 120 -147 17 -11 47 -40 66 -66 18 -26 68 -73
111 -105 170 -125 354 -297 386 -359 20 -40 24 -62 46 -289 37 -375 43 -527
41 -1190 0 -366 4 -744 10 -865 7 -118 10 -297 8 -397 -3 -158 -5 -185 -21
-200 -15 -16 -46 -18 -270 -23 -138 -3 -371 -3 -517 0 l-265 5 -62 33 c-81 42
-100 41 -119 -3 -16 -40 -18 -224 -3 -405 5 -63 14 -173 19 -245 6 -71 12
-339 14 -596 3 -296 8 -480 15 -506 16 -60 39 -81 105 -98 56 -15 61 -14 120
7 60 23 68 23 511 23 488 0 503 -2 524 -53 6 -17 15 -254 21 -611 12 -636 10
-618 71 -662 28 -20 35 -21 82 -10 100 22 347 29 997 31 499 0 658 4 667 13
20 20 37 410 37 884 1 302 4 445 12 453 21 21 135 32 197 19 46 -9 130 -9 400
1 270 10 364 10 446 1 57 -7 114 -17 128 -22 13 -5 42 -9 63 -9 31 0 40 4 45
21 10 32 -4 355 -22 514 -11 94 -17 224 -17 395 0 246 1 259 28 360 38 148 44
191 45 312 1 120 -7 149 -52 195 -35 37 -47 39 -120 19 -55 -15 -80 -17 -537
-41 -157 -8 -331 -20 -387 -26 -81 -9 -108 -9 -133 1 -45 19 -56 44 -35 89 14
32 15 49 6 112 -26 182 -35 801 -23 1599 11 795 15 856 51 929 10 20 21 51 24
69 14 71 62 147 147 232 84 85 169 140 215 140 26 0 98 25 215 74 74 31 95 46
160 113 57 58 106 96 194 148 126 75 150 98 236 219 30 43 74 104 96 136 97
136 123 272 131 695 l5 310 -27 115 c-30 129 -90 265 -154 350 -74 98 -74 98
-308 126 -182 22 -237 25 -438 21 -186 -3 -241 -8 -285 -22 -71 -23 -249 -24
-336 -1 -34 9 -75 16 -91 16 -16 0 -38 7 -49 15 -10 8 -25 15 -32 15 -8 0 -50
16 -93 35 -44 19 -91 35 -105 35 -13 0 -53 12 -87 26 -119 51 -302 87 -337 66z"/>
</g>
</svg>
