<svg width="198" height="236" viewBox="0 0 198 236" fill="none" xmlns="http://www.w3.org/2000/svg">
<path d="M94.5917 0.0737762C94.546 0.110657 92.9003 0.239746 90.9575 0.36882C89.0147 0.49791 86.2491 0.756073 84.832 0.940475C83.392 1.12488 81.9521 1.29085 81.6321 1.29085C81.2892 1.29085 80.8321 1.41992 80.6035 1.56744C80.375 1.69653 79.4378 1.91782 78.5464 2.02846C74.2723 2.60011 73.0609 2.80295 70.6152 3.44836C67.0954 4.35194 55.1871 9.2571 48.8559 12.3735C47.7588 12.9267 45.9531 13.8119 44.856 14.3466C43.7361 14.8814 41.6561 16.1538 40.2162 17.168C38.4562 18.4035 36.9248 19.2702 35.5763 19.8419C33.1307 20.8561 32.0793 21.7228 29.7479 24.5257C28.7422 25.7612 27.2566 27.2365 26.2509 28.0478C24.9709 29.0436 24.2852 29.7812 23.8052 30.6295C23.3938 31.3302 22.2739 32.6211 21.0167 33.8197C19.8739 34.9077 18.3197 36.5489 17.5883 37.4524C16.8569 38.356 15.874 39.4809 15.4398 39.9419C14.9826 40.4213 14.6169 40.8824 14.6169 40.9746C14.6169 41.0668 13.2913 43.4456 11.6685 46.2485C10.0685 49.0514 8.51427 51.8359 8.23999 52.426C7.98857 52.9977 7.50858 53.8828 7.21145 54.3623C6.91431 54.8417 6.41147 55.9666 6.09148 56.8886C5.31436 59.0646 1.65733 70.6451 1.10877 72.6551C-0.285469 77.7816 -0.376895 85.3974 0.903067 90.6345C1.01735 91.1324 1.22306 92.663 1.3602 94.0275C1.68019 97.4021 2.73158 101.496 4.1944 105.018C4.94866 106.807 5.58864 108.725 5.79435 109.905C6.00006 110.974 6.3429 112.284 6.52575 112.837C7.14288 114.57 9.67994 118.959 11.5313 121.43C12.4913 122.739 13.977 124.86 14.7998 126.095C15.5998 127.349 16.7197 128.843 17.2911 129.415C17.8397 130.005 18.6625 130.927 19.0968 131.48C20.2168 132.845 20.8796 133.416 22.5024 134.301C23.2567 134.707 25.6338 136.385 27.7594 138.026C32.9707 141.991 34.4563 143.024 38.6162 145.55C40.559 146.73 43.5989 148.593 45.3589 149.662C49.0845 151.949 49.9987 152.447 51.2101 152.779C51.713 152.926 52.4444 153.258 52.8558 153.498C53.9072 154.162 56.6728 155.157 59.8041 156.024C61.2441 156.43 63.0269 157.001 63.7583 157.297C64.6954 157.684 65.7925 157.923 67.6668 158.145C72.1009 158.661 72.4895 158.661 73.1066 158.274L73.6552 157.923L73.3809 151.93C73.2437 148.648 73.1295 143.208 73.1066 139.833C73.1066 134.08 73.0837 133.693 72.6723 133.269C72.1466 132.734 69.221 131.48 67.4154 131.019C65.3583 130.484 63.484 129.82 62.4098 129.212C61.2441 128.566 51.5987 120.84 50.273 119.475C49.793 118.977 49.0845 118.369 48.7188 118.111C48.3531 117.871 47.8274 117.226 47.5302 116.691C47.256 116.174 46.4103 115.197 45.6789 114.533C43.9875 113.021 43.2104 112.007 40.9933 108.522C40.0333 106.991 39.0276 105.497 38.7305 105.202C38.0219 104.428 37.3363 103.285 37.1306 102.529C37.0391 102.178 36.3991 100.887 35.7363 99.6703C34.0678 96.6276 33.3592 94.5808 33.3592 92.7736C33.3592 91.6119 33.245 91.114 32.7878 90.3026C32.4678 89.7309 32.1021 88.8274 31.9878 88.2926C31.8964 87.7578 31.7364 87.1862 31.645 87.0202C31.5536 86.8174 31.6679 86.6145 31.9421 86.467C32.285 86.2641 32.3993 85.8769 32.5135 84.4939C32.605 83.5534 32.7878 82.4101 32.925 81.9491C33.245 80.9533 33.085 77.9475 32.6735 77.2284C32.4221 76.8042 32.4678 76.6383 32.9707 75.9375C33.2678 75.495 33.6564 74.6467 33.8164 74.0382C35.1192 68.7458 37.542 62.2548 39.4848 58.8064C39.8505 58.1426 40.239 57.3496 40.3076 57.0361C40.399 56.7411 40.879 55.9113 41.3819 55.2105C41.9075 54.5098 42.5018 53.5509 42.7304 53.0714C43.2104 52.0572 44.7875 49.9366 45.9303 48.7933C47.8502 46.857 50.7987 44.2385 51.9187 43.4824C54.4557 41.7675 59.3927 38.9646 61.6784 37.9319C62.9812 37.3602 64.3297 36.6779 64.6954 36.4382C65.0611 36.1801 65.6783 35.9403 66.0897 35.8666C67.0496 35.7006 69.221 34.8155 70.8438 33.9303C73.3352 32.5842 75.2323 31.8834 77.3351 31.4962C78.4779 31.2934 79.7807 31.0721 80.215 30.9799C81.4264 30.777 81.6549 30.6479 82.1578 30.0394C82.8892 29.1727 83.872 28.7855 85.9519 28.5642C87.0033 28.472 88.7633 28.14 89.8832 27.8266C91.0032 27.5315 92.3517 27.2918 92.8546 27.2918C93.3574 27.2918 94.6374 27.1627 95.6888 26.9967C97.3802 26.7386 97.723 26.7386 98.7973 26.9967C99.4372 27.1443 101.334 27.4024 103.003 27.55C104.649 27.7159 106.751 27.9741 107.688 28.1216C109.723 28.472 115.162 29.8366 118.271 30.7955C119.528 31.1827 120.854 31.5515 121.242 31.6253C121.608 31.699 123.779 32.4735 126.042 33.3771C128.305 34.2623 130.956 35.2949 131.916 35.6453C133.768 36.346 137.105 38.2085 139.642 39.9972C140.465 40.5873 141.722 41.3987 142.43 41.8228C146.202 44.0541 150.521 49.4756 152.853 54.9524C153.356 56.1141 154.224 57.9766 154.796 59.1015C155.367 60.2079 155.938 61.4987 156.098 61.9597C156.236 62.4207 156.533 63.1583 156.784 63.6193C157.013 64.0804 157.47 65.3159 157.813 66.3854C158.133 67.4549 158.864 69.594 159.435 71.143C160.761 74.7942 161.173 76.3248 162.155 81.3959C163.07 86.1904 163.161 88.4217 162.612 92.8474C162.133 96.6461 161.927 97.5128 160.533 101.33C157.881 108.632 156.304 111.454 151.961 116.635C150.179 118.775 149.31 119.531 144.282 123.569C141.173 126.058 138.247 128.327 137.79 128.585C137.333 128.861 136.328 129.304 135.528 129.562C133.905 130.097 129.128 132.623 128.099 133.508L127.414 134.08L127.254 144.499C127.162 151.082 127.002 155.139 126.842 155.526C126.705 155.858 126.248 156.411 125.814 156.743C125.356 157.094 125.014 157.555 125.014 157.776C125.014 158.292 127.002 160.247 128.282 161.003C129.128 161.501 129.379 161.556 130.499 161.482C131.185 161.446 133.333 161.114 135.276 160.726C138.819 160.044 138.819 160.044 143.184 158.034C145.607 156.928 148.144 155.803 148.83 155.563C149.516 155.323 150.75 154.696 151.573 154.199C152.396 153.701 153.79 153.074 154.681 152.797C155.573 152.52 156.647 152.078 157.104 151.801C157.538 151.525 158.498 150.935 159.23 150.492C159.961 150.031 160.601 149.588 160.647 149.496C160.83 149.091 162.407 147.855 163.024 147.578C163.915 147.21 167.824 144.185 168.898 143.005C169.378 142.489 170.887 141.051 172.304 139.815C173.698 138.561 174.841 137.473 174.841 137.381C174.841 137.307 175.572 136.588 176.464 135.795C178.201 134.228 180.783 131.203 181.195 130.244C181.332 129.913 181.835 129.175 182.315 128.585C182.818 127.995 183.823 126.649 184.555 125.579C185.286 124.51 186.292 123.145 186.817 122.536C187.32 121.946 188.052 120.729 188.44 119.863C188.852 118.996 189.812 117.281 190.566 116.045C191.343 114.81 192.074 113.408 192.234 112.91C192.372 112.431 192.943 111.269 193.469 110.366C194.017 109.444 194.634 108.079 194.84 107.323C195.046 106.567 195.389 105.442 195.617 104.834C195.846 104.225 196.12 103.192 196.211 102.529C196.28 101.865 196.554 100.426 196.806 99.3199C197.126 97.9738 197.309 96.2404 197.354 94.0644C197.4 92.2757 197.583 89.3252 197.743 87.4996C198.086 83.535 198.086 80.9717 197.743 79.8469C197.606 79.3859 197.377 78.0582 197.24 76.8964C196.989 74.6836 196.44 72.397 195.503 69.6862C195.206 68.8195 194.909 67.6209 194.817 67.0124C194.749 66.4223 194.36 64.9286 193.972 63.7115C193.606 62.4945 193.194 60.9639 193.103 60.3001C192.737 57.9397 192.44 56.8333 192.006 56.2248C191.777 55.8744 191.503 55.3396 191.434 55.0261C191.343 54.7126 190.772 53.975 190.155 53.3665C189.332 52.592 188.875 51.9097 188.532 51.0246C187.823 49.2174 186.817 47.8159 185.972 47.4471C184.989 47.0599 184.875 46.8755 185.035 46.0457C185.103 45.64 185.058 45.0868 184.875 44.7548C184.486 43.925 180.258 37.8028 178.978 36.1985C177.515 34.3545 174.086 30.5926 173.469 30.15C173.172 29.9472 172.532 29.3202 172.029 28.767C171.001 27.6422 170.064 26.8308 163.618 21.5199C158.681 17.4446 156.716 16.08 154.178 14.9552C153.241 14.531 151.916 13.8487 151.253 13.4431C150.59 13.0374 149.059 12.3182 147.87 11.8572C146.682 11.3962 144.67 10.4926 143.413 9.86562C137.95 7.11801 134.11 5.38461 133.082 5.18176C132.488 5.05269 131.116 4.62856 130.042 4.2413C128.579 3.70653 127.162 3.39305 124.328 2.95047C122.248 2.63699 119.277 2.17598 117.7 1.93625C116.122 1.67809 113.883 1.36461 112.717 1.19864C111.551 1.03268 110.317 0.829834 109.974 0.719193C108.328 0.202866 105.517 1.52588e-05 100.192 1.52588e-05C97.1745 1.52588e-05 94.6374 0.0368958 94.5917 0.0737762Z" fill="#FF0000"/>
<path d="M98.7287 31.7913C97.2659 32.031 95.7345 32.3076 95.3231 32.4182C94.226 32.7317 93.106 33.4693 92.3746 34.3545C91.7803 35.0737 91.7575 35.2027 91.7575 37.5078C91.7803 40.0894 91.986 41.7122 92.8774 45.9166C93.1974 47.3918 93.6774 49.8813 93.9288 51.4487C94.5459 55.1368 94.7059 55.7269 95.5288 57.1652C96.1688 58.3454 96.6716 60.1341 96.6716 61.4065C96.6716 62.0519 97.1744 63.269 98.1573 65.0024C98.4544 65.5003 98.7515 66.3854 98.843 66.9386C99.003 68.0819 100.42 70.4054 101.54 71.4381C102.157 71.9913 102.569 72.1573 104.214 72.4892C109.426 73.5219 112.351 73.6325 116.968 72.9502C120.168 72.4708 121.768 71.936 121.928 71.2721C122.477 68.9671 122.477 68.7089 121.997 67.2152C121.745 66.4039 121.494 65.2052 121.448 64.5414C121.402 63.8775 121.242 61.9597 121.105 60.2448C120.877 57.239 120.877 57.1468 121.357 56.5198C121.791 55.9482 121.837 55.69 121.745 53.9013C121.608 51.504 121.242 47.9635 120.785 44.718C120.602 43.3903 120.397 41.1221 120.305 39.6469C120.237 38.1716 120.077 36.7148 119.939 36.3829C119.779 35.9403 119.162 35.4425 117.517 34.4467C116.305 33.7091 115.208 33.0452 115.071 32.9714C114.34 32.6026 109.905 31.8466 107.186 31.6069C103.117 31.2749 101.86 31.3118 98.7287 31.7913Z" fill="#FF0000"/>
<path d="M80.7178 34.5758C79.9178 34.7233 78.9579 34.9999 78.5465 35.1843C78.135 35.3871 77.2436 35.6822 76.5579 35.8666C74.6151 36.3645 71.5752 37.7106 69.9524 38.7802C68.2839 39.8681 67.3925 41.0299 66.8211 42.7817C66.4554 43.9066 66.4554 44.1279 66.8211 46.2854C67.0268 47.5578 67.3468 50.1579 67.5296 52.0941C67.7582 54.4914 68.1011 56.5567 68.6496 58.6405C69.061 60.3185 69.5867 62.7527 69.7924 64.0804C69.9981 65.3896 70.2724 66.7911 70.4096 67.1784C70.5238 67.5472 70.8895 69.004 71.1867 70.4054C71.6438 72.5076 71.8952 73.1899 72.7181 74.4992C73.2666 75.3474 74.1809 76.4723 74.7751 76.9702L75.8494 77.8738L78.5465 77.7631C83.4377 77.5787 88.2604 76.417 94.0431 74.0566C95.1631 73.5772 96.1916 73.2084 96.3516 73.2084C96.4888 73.2084 96.8773 73.0055 97.2202 72.7474C97.7002 72.3785 97.8144 72.1388 97.8144 71.3828C97.8144 69.8522 97.1973 67.6947 96.4431 66.6251C95.9631 65.9428 95.6202 65.0762 95.3917 64.0066C95.2088 63.1399 94.9117 62.0519 94.7288 61.5909C94.4088 60.7427 93.7003 57.1837 93.7003 56.3907C93.7003 56.151 93.4946 55.6162 93.2431 55.229C92.626 54.2516 92.1918 52.8502 91.8718 50.6558C91.7346 49.6784 91.5061 48.5904 91.3918 48.2585C91.2546 47.945 91.0261 46.8386 90.8432 45.8244C90.6604 44.8102 90.3632 43.3903 90.1804 42.6895C89.9975 41.9703 89.769 40.4029 89.7004 39.1858C89.5175 36.7148 89.1518 35.9588 87.6433 34.8708C86.8433 34.2991 86.7976 34.2991 84.4891 34.3176C83.2092 34.3176 81.5178 34.4467 80.7178 34.5758Z" fill="#FF0000"/>
<path d="M128.351 38.4298C127.596 38.5589 126.888 38.7986 126.728 38.9645C126.568 39.1489 126.385 39.7944 126.316 40.4213C126.225 41.0667 125.928 42.3576 125.654 43.2796C125.174 44.9208 125.174 45.013 125.539 45.64C126.042 46.4698 126.042 47.9081 125.539 49.6969C125.219 50.877 125.219 51.1905 125.471 51.8175C125.722 52.4445 125.722 52.7211 125.402 53.7722C125.174 54.4545 124.739 55.3765 124.374 55.8375C124.031 56.2801 123.597 56.8333 123.414 57.073C123.117 57.4603 123.139 57.5893 123.711 58.4192C124.374 59.3965 124.876 61.0008 125.128 62.8817C125.219 63.5456 125.425 64.357 125.608 64.7073C125.836 65.1315 125.928 66.1088 125.928 67.7869C125.928 70.1657 126.065 70.8664 126.659 71.4934C127.779 72.6183 128.488 72.9686 131.436 73.8538C133.128 74.3701 134.956 74.8864 135.528 74.9971C137.196 75.3659 139.482 75.2921 141.562 74.7758C142.567 74.5361 143.87 74.241 144.442 74.1119C145.699 73.8538 147.024 72.8027 147.779 71.4565C148.373 70.4054 148.533 69.3543 149.127 62.6051C149.333 60.3738 149.607 58.1794 149.744 57.7553C150.087 56.6304 149.813 53.7537 149.241 52.3338C148.464 50.4529 143.984 44.7364 143.116 44.5151C141.722 44.1463 140.853 43.6853 139.482 42.5235C137.928 41.1958 136.442 40.3845 133.082 39.0199C131.116 38.2269 130.133 38.1163 128.351 38.4298Z" fill="#FF0000"/>
<path d="M55.7585 48.6089C54.09 49.0699 53.5186 49.2727 50.5016 50.5451C48.8559 51.2458 45.1531 54.0672 43.9418 55.5609C42.9589 56.7595 42.8218 57.8475 43.1646 61.7753C43.4389 64.9839 43.7818 66.8464 44.4446 68.7826C44.6274 69.3358 44.7874 70.2394 44.7874 70.8111C44.7874 71.3643 44.9932 72.526 45.2674 73.3927C45.5189 74.2594 45.9303 75.8453 46.1817 76.9333C46.4103 78.0213 46.7302 79.1277 46.8674 79.4227C47.0045 79.6993 47.2559 80.732 47.4159 81.7093C47.6445 83.203 47.8274 83.6825 48.5588 84.6598C50.3873 87.1308 51.553 88.4032 52.6044 89.0855C53.8615 89.8784 54.8214 90.0813 56.4899 89.9338C57.4499 89.8416 57.8156 89.6756 58.7299 88.9933C59.7813 88.2004 60.9698 87.7762 62.2041 87.7762C63.3697 87.7762 68.6496 83.7009 69.5181 82.115C70.1581 80.9533 70.341 78.7773 70.1352 75.1261C69.9753 72.2494 69.9067 71.8622 69.1753 70.0735C68.3753 68.1557 67.9182 66.2194 67.3925 62.6051C67.2553 61.5909 66.9353 60.005 66.7068 59.1014C66.4782 58.1794 66.1811 56.3538 66.0668 55.0445C65.9297 53.7168 65.724 52.3338 65.5868 51.965C65.0611 50.4898 60.6955 48.1294 58.5242 48.1294C57.9528 48.1294 56.6957 48.3507 55.7585 48.6089Z" fill="#FF0000"/>
<path d="M103.3 73.9091C103.117 74.0013 102.18 74.1303 101.243 74.1857C98.9572 74.3147 96.283 74.9786 92.6717 76.2879C89.3118 77.5049 87.8261 78.4823 86.729 80.2341C85.8605 81.5803 85.1748 83.83 85.4719 84.2726C85.6091 84.457 85.7005 84.8627 85.7005 85.1577C85.7005 85.7662 86.5919 88.1266 87.1404 89.0117C87.7347 89.9338 89.9289 91.7409 91.2546 92.3863C91.8946 92.7183 92.9003 93.2346 93.4717 93.5481C94.1117 93.8984 95.5059 94.3226 97.3573 94.7098C98.9344 95.0602 101.289 95.595 102.614 95.9084C103.94 96.2219 105.448 96.5354 105.974 96.6092C107.048 96.7751 108.1 97.2546 108.1 97.605C108.077 98.2319 107.14 98.6561 105.768 98.6561C104.374 98.6561 99.9629 97.6787 98.363 97.0333C96.9459 96.4617 95.7802 96.1666 92.786 95.6134C91.8489 95.4474 89.8832 94.9495 88.4433 94.507C85.7462 93.6956 81.472 92.9211 77.815 92.5707C75.3465 92.331 74.6608 92.1835 71.5295 91.3168C69.221 90.6714 69.0153 90.6345 65.9297 90.6345C60.8555 90.6345 59.2327 91.243 57.6556 93.7509C55.6214 96.978 56.1928 103.008 59.0956 108.927C59.6441 110.071 60.1013 111.066 60.1013 111.177C60.1013 111.527 62.1583 113.574 62.844 113.888C63.2326 114.091 63.9183 114.625 64.3526 115.105C64.764 115.584 65.9068 116.451 66.8896 117.041C70.7752 119.346 74.9808 122.518 75.7122 123.661C76.1693 124.399 76.2608 124.805 76.7636 128.991C77.6093 135.906 77.7464 138.709 77.7007 150.935C77.7007 157.684 77.7922 164.654 77.9293 166.885C78.0893 169.061 78.1579 172.362 78.1121 174.206C78.0436 177.12 77.9979 177.618 77.6322 177.894C77.2893 178.189 76.5808 178.226 71.4609 178.319C68.3067 178.374 62.9812 178.374 59.6441 178.319L53.5872 178.226L52.1701 177.618C50.3187 176.843 49.8844 176.862 49.4502 177.673C49.0844 178.411 49.0387 181.804 49.3816 185.141C49.4959 186.303 49.7016 188.332 49.8159 189.659C49.953 190.969 50.0901 195.911 50.1358 200.65C50.2044 206.108 50.3187 209.501 50.4787 209.981C50.8444 211.087 51.3701 211.474 52.8786 211.788C54.1586 212.064 54.2729 212.046 55.6214 211.659C56.9928 211.235 57.1756 211.235 67.301 211.235C78.455 211.235 78.7978 211.272 79.2778 212.212C79.415 212.525 79.6207 216.896 79.7578 223.479C80.0321 235.207 79.9864 234.875 81.3806 235.687C82.0206 236.055 82.1806 236.074 83.2548 235.871C85.5405 235.465 91.186 235.336 106.043 235.299C117.448 235.299 121.082 235.226 121.288 235.06C121.745 234.691 122.134 227.499 122.134 218.758C122.157 213.189 122.225 210.552 122.408 210.405C122.888 210.018 125.494 209.815 126.911 210.054C127.962 210.22 129.882 210.22 136.053 210.036C142.224 209.852 144.373 209.852 146.247 210.018C147.55 210.147 148.853 210.331 149.173 210.423C149.47 210.515 150.133 210.589 150.613 210.589C151.321 210.589 151.527 210.515 151.641 210.202C151.87 209.612 151.55 203.656 151.138 200.724C150.887 198.99 150.75 196.593 150.75 193.44C150.75 188.903 150.773 188.664 151.39 186.801C152.258 184.072 152.396 183.279 152.418 181.048C152.441 178.835 152.258 178.3 151.23 177.452C150.43 176.77 150.156 176.733 148.487 177.101C147.23 177.378 146.659 177.415 136.213 177.858C132.625 178.005 128.648 178.226 127.368 178.337C125.516 178.503 124.899 178.503 124.328 178.319C123.299 177.968 123.048 177.507 123.528 176.677C123.848 176.087 123.871 175.774 123.665 174.612C123.071 171.256 122.865 159.841 123.139 145.126C123.391 130.466 123.482 129.341 124.305 127.995C124.534 127.626 124.785 127.054 124.854 126.722C125.174 125.413 126.271 124.012 128.213 122.444C130.133 120.877 132.076 119.863 133.128 119.863C133.722 119.863 135.368 119.401 138.042 118.498C139.733 117.926 140.213 117.65 141.699 116.414C143.002 115.345 144.122 114.644 146.133 113.685C149.013 112.302 149.561 111.878 151.527 109.647C152.213 108.854 153.218 107.729 153.721 107.139C155.938 104.631 156.533 102.123 156.715 94.3226L156.83 88.606L156.213 86.4854C155.527 84.1066 154.156 81.5987 152.693 80.0313C151.001 78.2241 151.001 78.2241 145.653 77.7078C141.493 77.3021 140.236 77.2468 135.642 77.3205C131.391 77.3759 130.133 77.468 129.128 77.7262C127.505 78.1503 123.436 78.1688 121.448 77.7447C120.671 77.5787 119.734 77.4496 119.368 77.4496C119.002 77.4496 118.499 77.3205 118.248 77.173C118.02 77.0255 117.677 76.8964 117.517 76.8964C117.334 76.8964 116.374 76.6014 115.391 76.251C114.385 75.9006 113.311 75.6056 112.991 75.6056C112.694 75.6056 111.78 75.3843 111.003 75.1261C108.283 74.1857 104.1 73.5218 103.3 73.9091Z" fill="#FF0000"/>
</svg>
